<?xml version="1.0" encoding="UTF-8" standalone="no"?>
<svg
   id="svg2"
   height="1972.8076pt"
   width="1634.3292pt"
   version="1.1"
   viewBox="0 0 1634.3292 1972.8076"
   sodipodi:docname="mule_logo.svg"
   xml:space="preserve"
   inkscape:version="1.2.2 (b0a8486541, 2022-12-01)"
   xmlns:inkscape="http://www.inkscape.org/namespaces/inkscape"
   xmlns:sodipodi="http://sodipodi.sourceforge.net/DTD/sodipodi-0.dtd"
   xmlns="http://www.w3.org/2000/svg"
   xmlns:svg="http://www.w3.org/2000/svg"><defs
     id="defs44" /><sodipodi:namedview
     id="namedview42"
     pagecolor="#ffffff"
     bordercolor="#666666"
     borderopacity="1.0"
     inkscape:showpageshadow="2"
     inkscape:pageopacity="0.0"
     inkscape:pagecheckerboard="0"
     inkscape:deskcolor="#d1d1d1"
     inkscape:document-units="pt"
     showgrid="false"
     inkscape:zoom="0.15785256"
     inkscape:cx="465.62437"
     inkscape:cy="886.90355"
     inkscape:window-width="1854"
     inkscape:window-height="1011"
     inkscape:window-x="0"
     inkscape:window-y="0"
     inkscape:window-maximized="1"
     inkscape:current-layer="svg2" /><path
     id="path4"
     d="m 23.206923,121.40373 c -0.2376,0.0496 -0.6104,0.408 -1.1656,1.228 -20.6295997,61.08 -28.8199997,128.144 -14.2999997,191.536 28.5303997,98.488 107.1679967,183.2 206.7919967,211.432 3.728,43.776 11.968,87.272 13.136,131.2 -10.784,66.232 -35.552,129.616 -46.208,195.84 -40.848,18.976 -58.112,71.768 -39.256,112.088 9.84,22 27.936,39.11997 47.568,52.55997 4.816,-1.52 -3.464,-4.08 -4.192,-5.92 -35.576,-26.55997 -53.544,-79.75997 -27.888,-118.98397 11.44,-19.744 31.168,-40.024 56.16,-36.088 6.216,1.416 12.16,3.864 18.336,5.456 -2.936,-4.552 -11.12,-6.272 -13.096,-10.296 44.976,-58.4 122.248,-93.296 195.888,-84.472 58.44,7.624 115.48,37.376 150.888,85.064 6.744,5.488 -2.648,9.56 -5.408,13.784 16.16,-9.632 37.496,-10.256 52.328,2.288 22.704,20.736 37.664,53.168 30.192,84.128 -5.712,26.96 -25.392,47.99997 -46.28,64.71997 23.192,-11.44 42.096,-31.83997 52.408,-55.51997 17.872,-40.96 -2.616,-96.688 -46.872,-109.888 -6.448,-55.24 -20.208,-109.36 -34.928,-162.952 -5.928,-20.368 -7.064,-41.848 -3.68,-62.792 4.232,6.24 7.632,13.056 12.176,19.08 7.76,-7.008 13.864,-15.504 20.208,-23.696 -5.864,46.04 25.336,90.6 69.448,103.176 -11.6,-14.928 -15.44,-34.64 -14.32,-53.192 12.152,45.144 47.992,87.536 96.6,92.744 -10.224,-17.832 -14.432,-37.928 -17.912,-57.968 16.336,23.784 50.016,36.656 76.992,28.568 -19.496,-8 -27.296,-29.24 -32.4,-48.048 14.272,10.2 31.52,16.608 49.04,11.64 4.96,-1.424 9.68,-3.504 14.88,-3.76 83.6,43.936 181.59998,58.92 274.87998,45.24 54.96,-7.392 107.68,-26.232 162.64,-33.496 32.56,-4.056 69.6,-0.776 93.92,23.856 41.36,35.544 72.64,81.184 100.56,127.6 33.12,58.528 57.6,123.328 62.4,190.84797 3.6,34.48 -11.2,67.36 -31.04,94.64 -25.68,35.36 -51.2,72.4 -62.96,115.04 -8.08,30.64 -10,66.8 7.68,94.4 25.12,20.8 56.32,51.6 44.32,87.6 -36.4,96.56 -62,199.84 -50.64,303.68 -24.96,-12.96 -52.32,-22 -80.56,-22.56 -11.36,0.72 -22.72,1.52 -33.92,3.76 -19.68,4.64 -38.08,13.68 -54.72,25.28 12.56,-30.08 39.12,-50.4 57.84,-76.16 51.04,-67.92 55.84,-163.76 20.96,-239.92 -26.32,-48.8 -63.6,-91.44 -105.92,-127.04 -60.4,-45.92 -106.8,-109.36 -134.32,-179.92 -1.36,-2.56 -1.44,-6.24 -3.84,-7.92 7.12,33.28 22.64,64.08 39.36,93.44 15.36,24.16 32.08,47.44 51.6,68.32 16.32,17.84 35.68,32.56 53.52,48.8 4.88,4 -4.32,5.68 -6.56,8 -105.52,66.16 -232.96,91.04 -356.23998,85.2 -1.04,-5.28 2.96,-10.24 4.4,-15.28 6.32,-24.72 6.32,-52.16 -4.24,-75.84 -8.08,-17.12 -20.72,-32.56 -36.88,-42.56 24.8,22.72 43.76,55.28 38.72,90.08 -0.32,32.8 -24.4,57.44 -35.44,86.72 -24.88,60.64 -37.44,126.4 -37.2,191.92 -0.72,41.2 13.6,80.64 16.88,121.36 2.48,41.2 -4.4,85.36 -29.68,118.96 11.84,-42.24 -20.192,-84.4 -61.2,-93.04 -13.688,-3.6 -28.008,-2.48 -41.856,-0.48 -11.536,3.52 -22.872,7.44 -33.912,12.24 8.096,-45.84 58.768,-69.52 63.344,-116.48 6.136,-33.92 8.296,-68.4 10.384,-102.72 1.904,-68.88 -0.216,-144.24 -40.072,-203.52 -21.528,-38.24 -41.608,-77.2 -63.12,-115.36 -1.808,-3.12 -3.24,-6.48 -4.76,-9.76 -1.896,-2.48 -3.888,-4.88 -5.744,-7.44 10.68,30.32 26.576,58.48 38.928,88.08 -18.952,-13.52 -34.816,-30.8 -50.792,-47.6 -30.92,-32.24 -56.6,-68.88 -86.512,-102 -6.456,-9.52 -18.208,-19.2 -21.768,-28.24 16.28,-12.24 30.688,-27.04 42.08,-44 16.128,-25.84 29.96,-54 35.576,-84.08 3.696,-14.4 4.96,-29.2 7.272,-43.76 16.6,-7.75997 36.504,-25.11997 29.36,-45.03997 -6.816,-11.04 -20.536,-2.48 -23.28,7.04 -13.632,31.04 -11.376,66.23997 -22.896,97.99997 -11.144,30.8 -26.816,60.56 -49.384,84.64 -20.448,21.44 -48.216,33.2 -74.736,45.2 -25.52,11.84 -54.96,16.56 -82.416,9.04 -23.584,-5.6 -45.088,-17.68 -66.384,-28.88 -10.672,-5.44 -20.56,-12.4 -29.144,-20.72 -27.144,-26.16 -45.72,-60.16 -57.896,-95.6 -10.96,-31.44 -9.12,-66.79997 -25.376,-96.47997 -3.648,-8.48 -19.8,-11.52 -20.768,0.48 -2.832,17.44 12.944,28.8 25.6,36.96 2.112,9.27997 3.112,18.79997 4.496,28.23997 7.04,59.68 35.304,120.24 86.944,153.84 7.184,2.32 5.008,10.72 6.752,16.32 7.04,40.16 42.88,72.64 83.656,75.44 31.432,1.84 66.192,-2.8 90.672,-24.48 16.504,-15.6 27.224,-37.28 28.76,-60.08 -2.104,-4.96 6.84,-13.04 9.24,-6.16 31.92,58.88 77.032,109.28 129.016,151.12 5.584,40.4 15.656,80.4 30.296,118.56 15.128,33.84 18.168,71.84 19.584,108.48 0.728,52.8 -5.432,108.56 -33.504,154.48 -10.24,5.84 -17.496,15.76 -27.296,21.84 -60.424,9.84 -108.872,61.44 -120.176,120.8 -0.584,14.72 16.624,19.6 28.312,20.56 30.912,1.44 61.344,-5.6 91.392,-12 -14.472,24.08 -31.264,53.76 -19.68,82.24 14.208,24.56 46.856,25.36 71.968,28.16 89.848,4.24 169.12,-76.56 169.92,-165.2 4.32,-57.84 -20.88,-113.28 -14.24,-171.2 4.88,-71.68 15.92,-146.32 53.84,-208.72 110.56,20.56 225.43998,-6.56 321.43998,-62.8 27.44,35.84 35.92,83.92 34,128.56 3.12,44.88 -0.32,97.68 -36.72,129.52 -24.88,21.44 -47.36,45.6 -70.48,68.64 -41.76,15.44 -78.48,52.16 -81.68,98.24 1.12,9.6 -1.12,22.8 7.36,29.6 51.44,15.12 107.28,-0.4 151.12,-29.2 27.36,-16.48 56.96,-40.08 60.96,-74.08 6.48,-74.16 43.36,-140.4 76.48,-205.44 3.84,-5.12 5.44,-13.84 10.88,-16.8 12.48,57.52 4.8,120.96 -27.92,170.8 -18.24,29.68 -48.56,51.2 -61.84,84.16 -3.2,9.6 -13.2,14.24 -18.4,22.56 -16.56,23.76 -30.4,52.56 -26.72,82.24 1.28,26.08 22.88,49.68 49.44,50.64 41.52,1.68 80,-17.28 116.56,-34.64 26,-11.68 50.08,-33.76 54.96,-62.96 8.72,-33.68 -2.56,-68 -1.04,-102 -2.24,-49.12 8.32,-97.36 16.64,-145.44 7.2,-42.24 23.6,-82.08 37.76,-122.32 8.64,-37.84 -22.64,-67.92 -48,-90.64 -25.68,-60.8 8.32,-126.24 44.24,-175.04 17.84,-23.52 36.08,-47.92 44.72,-76.48 -0.24,37.04 -11.84,75.92 -15.76,113.76 -1.76,33.44 -7.12,69.6 -3.6,100.96 -0.56,-60.72 8.48,-121.04 20.48,-180.4 18,-103.36 -15.28,-208.31997 -68.48,-296.35997 27.52,32.64 48.64,70.448 65.2,109.72 30.32,69.11997 26.96,147.59997 12.8,220.23997 -11.2,48.08 -25.76,97.52 -18.72,147.36 1.6,-41.2 5.68,-83.52 19.12,-123.04 18.96,-65.44 26.96,-135.28 13.76,-202.55997 -15.36,-72.8 -60.48,-134.968 -111.36,-187.576 -25.12,-23.272 -43.68,-52.832 -70.56,-74.448 -21.36,-20.016 -50.64,-30.936 -79.92,-29.52 -68.64,3.176 -132.72,31.616 -200.4,40.576 -87.84,10.96 -180.71998,0.12 -259.99998,-40.912 2.56,-2.376 6.64,-3.32 8.4,-6.52 -36.4,2.712 -46.32,-52.792 -85.432,-42.64 -9.672,-20.024 -30.176,-30.768 -50.976,-35.592 -11.624,-27.288 -35.904,-47.488 -62.384,-59.64 -6.104,-15.328 -17.184,-29.488 -29.096,-39.272 87.072,-43.76 153.968,-130.12 167.384,-227.496 3.544,-53.544 -5.48,-108.192 -25.864,-157.856 -0.984,1.4256 -1.712,3.076 -1.824,4.8256 21.104,65.1504 24.632,138.632 1.736,204.072 -29.52,87.4 -98.896,163.208 -187.928,191.112 0.944,-10.36 2.352,-20.672 2.744,-31.08 0.528,-9.576 1.44,-19.12 1.92,-28.704 -0.584,-12.848 -1.768,-25.752 -5.36,-38.152 -1.888,-5.448 -6.736,-12.4 -0.576,-16.92 26.728,-33.104 49.68,-70.296 62.296,-111.152 16.864,-66.352 53.352,-133.056 117.088,-164.248 0.48,-0.2664 1.432,-0.8064 1.912,-1.076 l -0.128,-0.7392 c -64.048,24.6 -106.4,85.48 -127.168,148.8 -13.544,43.56 -31.16,86.184 -57,123.984 -4.544,8.52 -7.816,-4.528 -10.576,-7.592 8.768,-7.576 12.8,-21.184 4.784,-30.856 -12.712,-12.184 -30.896,-15.816 -47.8,-17.72 29.184,-19.688 65.336,-28.2 91.792,-51.744 7.416,-5.616 5.976,-17.912 -2.864,-20.76 -34.992,-14.864 -74.76,-1.192 -103.808,20.224 8.952,-12.32 20.392,-24.896 20.592,-41.008 -0.776,-9.224 -11.184,-13.696 -19.464,-12.256 -23.56,-0.4 -39.88,20.368 -49.16,38.848 -8.888,-26.328 -23.408,-52.024 -46.176,-68.68 -11.584,-9.152 -31.032,-8.752 -39.72,4.088 -11.032,14.984 -5.432,34.632 -0.176,50.752 -23.632,-17.12 -49.952,-34.584 -79.92,-36.56 -17.48,-0.968 -43.104,13.32 -33.536,33.872 17.448,24.528 48.144,33.584 74.968,44.272 -38.44,-3.472 -99.448,-9.696 -122.96,33.096 -9.08,22.584 15.808,39.048 35.272,41.4 -5.672,7.456 -9.912,16.84 -16.696,23.104 -26.568,-35.312 -47.976,-74.936 -59.504,-117.752 -21.824,-65.48 -62.216,-132.008 -129.567997,-157.408 41.848,21.5968 74.463997,58.4064 93.919997,101.024 14.824,28.28 21.224,59.752 32.664,89.344 13.72,33.896 36.728,62.976 61.12,89.816 -1.152,2.688 -2.488,5.304 -3.8,7.92 -7.232,12.736 -5.248,33.88 -9.848,42.424 2.768,7.24 2.272,18.952 2.752,28.12 0.104,2.488 0.176,4.976 0.216,7.488 l 0.04,0.896 c -0.496,7.704 3.248,19.344 0.76,25.032 -86.312,-27.568 -152.919997,-101.056 -184.127997,-184.8 -24.5199997,-64.176 -21.5999997,-135.008 -8.48,-201.368 0.46,-3.0992 0.98,-6.1904 1.5,-9.2808 0.1104,-0.6096 0.3208,-1.8288 0.4208,-2.4392 0.4048,-1.3568 0.8984,-3.9968 0.184,-3.848 z m 732.423997,20.808 c -5.32,3.5896 -9.848,8.1608 -14.168,12.8608 -24.344,33.02 -41.664,70.6992 -54.08,109.656 -20.432,69.456 -41.392,144.992 -100.304,192.552 35.376,-24.28 60.368,-60.952 76.704,-100.152 29.264,-63.752 38.128,-136.232 77.904,-195.088 4.584,-6.6424 8.912,-13.5024 13.944,-19.832 z m -720.503997,4.4 c -0.5544,-0.012 -1.0568,0.3296 -1.4256,1.2608 34.76,37.2896 50.656,87.384 65.184,135.16 21.447997,64.832 45.767997,136.976 105.967997,175.456 -56.16,-42.352 -77.8,-112.072 -96.96,-176.48 -13.223997,-48.36 -34.191997,-96.152 -69.231997,-132.76 -0.8456,-0.8864 -2.3152,-2.6152 -3.5344,-2.64 z m 343.471997,73 c 37.208,-0.328 58.072,41.096 73.208,69.368 13.008,-15.76 27.944,-34.608 49.488,-39.408 5.64,-1.632 12.36,3.304 10.488,9.68 -1.752,16.024 -7.176,33.32 -18.912,44.984 28.064,-12.992 59.512,-23.376 90.688,-20.024 10.656,2.68 0.672,14.136 -4.8,16.968 -27.168,16.584 -63.424,25.216 -80.016,54.744 19.08,4.56 43.944,0.144 59.96,15.384 6.8,6.28 0.048,16.344 -6.976,18.8 -19.384,8.152 -42.52,6.112 -60.8,-4.008 -2.976,-1.208 -3.192,-4.592 -4.176,-7.208 -5.72,33.16 -18.536,87 -61.168,94.272 3.816,4.888 9.168,7.832 15.008,9.536 -16.6,3.664 -27.576,-12.648 -32.152,-26.2 -3.544,-12.616 -10.944,-26.696 -4.128,-39.56 -0.048,-1.328 0.064,-2.64 0.12,-3.952 -17.352,29.4 -39.608,56.192 -66.776,77.024 -11.232,7.776 -23.416,16.792 -37.816,16.128 0.792,4.368 1.992,8.68 2.888,13.04 -20.392,-7.936 -14.552,-34.32 -9.824,-50.944 8.984,-21.864 20.448,-43.176 37.152,-60.184 -18.632,9.04 -25.08,32.712 -42.88,43.472 -16.024,11.368 -36.472,24.56 -56.672,17.616 -0.448,5.2 0.768,10.264 2.336,15.152 -13.12,-6.832 -10.192,-25.952 -6.384,-37.472 11.448,-27.696 34.672,-53.368 62.152,-64.864 11.52,-2.72 24.352,-4.096 34.136,-11.336 -31.664,1.272 -68.512,8.544 -97.888,-9.448 -9.408,-4.736 -15.848,-18.616 -4.832,-25.872 37.88,-29.656 91.008,-21.728 134.848,-20.792 -32.688,-13.176 -67.968,-28.032 -88.256,-58.488 -5.32,-7.168 0.04,-13.56 7.408,-14.832 31.272,-6.288 60.672,11.864 87.72,24.944 13.168,4.192 11.952,21.264 22.016,28.944 -7.848,-23.52 -22.744,-52.504 -6.944,-75.416 0.6,-0.024 1.192,-0.04 1.784,-0.048 z m -102.816,164.688 c -14.888,9.272 -30.152,18.792 -41.28,32.624 -1.168,2.056 -4.456,0.8 -3.496,-1.584 4.4,-11.16 10.8,-21.616 18.2,-31.032 8.856,0.544 17.728,0.8 26.576,-0.008 z m 212.8,7.064 c 18.08,10.064 39.224,17.056 59.944,11.92 22.608,32.008 17.608,73.696 15.144,110.728 -2.336,48.656 -9.776,97.08 -9.712,145.8 9.616,51.088 25.984,100.608 36.752,151.48 -23.168,-30.384 -54.656,-53.792 -87.896,-71.304 -34.912,-14.56 -71.752,-26.832 -109.912,-27.664 -54.816,3.136 -109.232,22.328 -153.232,54.4 -14.264,13.832 -30.752,27.056 -44.128,42.16 9.76,-45.368 25.96,-89.032 38.272,-133.72 6.128,-21.472 3.128,-43.8 1.568,-65.656 -3.68,-41.088 -6.4,-82.336 -11.032,-123.296 6.624,4.64 14.744,4.72 22.488,3.88 13.712,-4.408 27.136,-13.92 39.072,-22.96 -6.312,17.28 -11.616,43.192 5.968,55.872 17.896,11.896 40.48,0.24 54.208,-12.584 23.84,-20.816 42.832,-47.64 54.104,-77.256 1.392,22.728 7.912,54.976 35.168,58.896 29.384,1.4 45.744,-29.096 50.6,-54.208 2.04,-15.392 3.792,-30.904 2.624,-46.488 z m 125.704,119.456 c 1.64,-0.016 3.128,0.664 4.344,2.52 20.176,15.264 26.936,42.12 26.592,66.312 4.968,40.704 -10.84,81.08 -3.32,121.64 -18.52,-28.264 -23.048,-63.032 -28.552,-95.736 -2.176,-13.512 -10.152,-31.232 -26.288,-30.584 7.56,21.128 -0.576,44.976 -8.528,64.992 -12.12,-37.28 8.52,-77.96 2.272,-116.56 6.48,-2.832 13.256,-4.952 19.952,-7.192 4.176,-0.832 9.344,-5.368 13.528,-5.392 z m 37.352,41.544 c 10.264,4.568 18.928,12.336 26.264,20.688 10.784,8.248 18.32,20.752 24.112,33 5.16,45.08 10.8,90.248 21.48,134.432 1.568,3.496 -2.288,2.336 -3.92,0.88 -36.4,-26.952 -51.984,-72.96 -57.84,-116.176 -1.272,-18.52 -11.144,-35.464 -7.912,-54.384 -0.016,-6.224 -1.168,-12.336 -2.184,-18.44 z m -197.736,39.28 c -21.4,2.664 -25.648,35.224 -7.968,45.544 9.56,6.072 23.36,0.984 27.752,-9.168 8.648,-14.384 -2.296,-36.576 -19.784,-36.376 z m -120.872,0.144 c -25.24,3.816 -30.208,49.488 -1.192,51.944 29.264,-1.312 25.528,-45.96 1.192,-51.944 z m -16,16.4 c 1.512,7.712 3.504,18.288 12.496,20.344 7.88,2.424 12.24,-5.168 16.456,-10.176 -1.784,7.856 -6.528,17.968 -16,17.576 -12.376,-1.936 -16.552,-17.16 -12.952,-27.744 z m 121.608,1.264 c 2.992,5.568 3.784,17.28 12.856,19.112 8.144,2.416 12.6,-4.832 16.488,-10.256 -1.496,7.136 -7.552,14.952 -15.68,13.736 -10.112,-2.144 -13.504,-13.584 -13.664,-22.592 z m 276.136,2.824 c 13,4.864 27.648,11.8 31.16,26.728 10.344,30.416 21.32,60.928 38.808,88.096 -25.552,-6.664 -45.032,-29.176 -51.608,-54.328 -4.472,-16.136 -11.304,-31.64 -14.944,-47.968 -1.472,-4.104 -2.776,-8.24 -3.416,-12.528 z m 50.88,35.032 c 31.008,2.8 46.448,39.816 78.048,40.696 -32.48,8.416 -66.088,-9.984 -78.048,-40.696 z m -372.128,70.832 c 18.64,0.144 37.208,2.984 55.208,9.064 19.896,5.088 39.52,12.4 57.144,22.928 34.536,18.328 69.312,42.728 88.056,77.848 0.848,7.664 2.512,15.272 2.44,23.024 -7.624,-0.488 -14.848,2.224 -22.288,2.856 -40.064,-57.272 -108.768,-90.368 -177.728,-94.152 -57.08,1.08 -112.824,24.144 -155.776,61.336 -8.48,9.928 -18.808,19.32 -27.048,29.96 -8.592,-1.784 -17.552,-2.936 -26.08,-0.112 -0.72,-33.448 27.416,-56.4 50.68,-75.88 43.032,-33.496 99.488,-57.312 155.392,-56.872 z m -3.264,118.744 c -1.032,-0.008 -2.064,-0.008 -3.096,0.008 -24.064,0.328 -47.664,7.272 -65.384,24.288 37.168,-15.968 80.472,-21.872 119.832,-10.936 6.88,1.464 13.4,4.208 20.192,6.016 -7.912,-5.56 -17.552,-7.888 -26.28,-11.872 -14.24,-4.552 -29.808,-7.36 -45.264,-7.504 z m -7.008,18.2 c -0.208,0.032 -0.408,0.328 -0.56,1.048 -4.736,72.44 3.504,144.59997 8,216.75997 1.088,4.56 -0.36,11.28 2.08,14.08 0.952,-23.68 1.16,-47.44 2.376,-71.2 0.056,-52.71997 0.88,-105.76797 -10.368,-157.59197 -0.12,-0.856 -0.888,-3.192 -1.528,-3.096 z m 74.688,277.16797 c -31.76,29.2 -81.8,30.4 -117.6,8.24 -3.72,-2.16 -15.968,-13.12 -10.52,-4.4 30.56,38.48 92.144,34.88 125.032,1.12 1.032,-1.68 2.064,-3.28 3.088,-4.96 z m 36.12,48.24 c -3.192,32.08 -25.384,63.12 -57.28,71.68 -21.384,5.6 -44.888,7.92 -66.36,2 -34.52,-5.12 -64.024,-31.52 -74.28,-64.88 -0.624,-1.92 -1.112,-3.92 -1.488,-5.92 32.728,15.36 66.848,32.88 104.104,30.88 34.68,-0.16 65,-19.6 95.304,-33.76 z m 1037.75998,133.44 c -0.72,0 -1.44,0 -2.16,0.08 -1.68,1.68 -11.68,1.28 -7.12,5.2 -4.32,-2.96 -10.56,6.56 -8.48,-3.2 -29.76,73.52 2.88,163.84 69.76,205.12 4.08,1.84 2.72,-2.08 2.24,-4.96 13.68,10.4 30.16,15.12 46.88,17.52 1.44,-0.8 -1.28,-1.76 -0.32,-3.12 -12.32,-3.04 -25.28,-9.28 -31.04,-21.28 -16.24,-30.24 -26,-65.04 -51.44,-89.52 -19.52,-27.28 -40.88,-65.76 -25.2,-98.64 -0.24,-0.56 -0.56,-1.68 -0.72,-2.24 23.6,-4.24 43.92,12.8 58.72,29.12 19.84,20.64 32.56,46.56 43.12,72.8 0.64,0.72 1.28,1.44 2,2.16 -7.28,-29.2 -19.36,-57.92 -38.96,-81.12 -13.52,-17.36 -35.28,-28.16 -57.28,-27.92 z m -278.88,19.44 c 44,43.04 91.28,90.96 103.52,153.68 -22.24,28.08 -41.6,59.28 -58.56,91.12 -19.28,41.12 -28.88,86.16 -32.56,131.2 -22,-21.92 -54.08,-31.36 -84.64,-29.52 -4.08,0.24 -7.92,0.88 -11.92,1.28 -10.48,2.08 -20.96,4.24 -30.96,8.08 24.64,-25.52 52.72,-47.52 79.76,-70.32 24.72,-25.04 34.08,-61.04 35.68,-95.36 1.44,-40.64 0.8,-83.84 -18.72,-120.72 -6.4,-14.32 -16.32,-27.68 -25.6,-40.64 15.12,-8.88 29.92,-18.32 44,-28.8 z m -613.28798,0 c 11.856,10.08 29.36,15.52 34.12,31.84 13.536,32.48 35.328,61.6 42.376,96.56 19.432,75.04 16.68,153.6 9.472,230.16 -1.032,17.36 -5.68,35.52 -16.824,49.04 -13.76,-6.72 -29.448,-8.88 -44.128,-10.56 -6.432,-0.08 -12.848,0 -19.248,-0.4 -4.04,-0.48 -23.264,4.56 -12.592,-3.04 27.6,-16.16 39.4,-48.16 48.6,-77.2 15.36,-59.92 18.384,-123.84 4.016,-184.24 -10.944,-28.48 -24.216,-56.08 -33.112,-85.28 -4.84,-15.44 -9.2,-31.04 -12.68,-46.88 z m 946.15998,72.88 c 4.32,9.68 12.88,17.52 21.92,22.96 4.4,2.32 10.32,4.08 9.68,10.48 4.8,29.12 2.16,60.08 14.08,87.68 -6.32,-30.56 4.4,-64.24 -12.56,-92.4 1.84,-1.2 18.72,8.56 14.24,1.28 -17.84,-5.36 -28.56,-25.2 -47.36,-30 z m -400.08,283.28 c 4.16,34.24 -8.48,70.16 -34.16,93.36 -20.72,19.68 -51.84,30.72 -78.64,30.64 -4.08,-1.68 -11.52,-0.8 -10.72,-7.12 -6.24,-45.36 30.48,-83.12 68.96,-100.56 16.32,-8 35.6,-15.52 54.56,-16.32 z m 180.32,39.52 c 12.4,0 24.8,1.68 36.64,5.2 19.68,34.08 6.56,77.68 -18.24,105.52 -30.8,31.92 -74.88,64.16 -121.76,51.52 -20.64,-6.72 -30.32,-30.72 -27.92,-50.96 5.92,-41.68 32.24,-80.32 71.28,-97.52 18.56,-8.88 39.36,-13.68 60,-13.76 z m -711.35198,8.8 c -0.608,2.08 -3.72,2.24 -5.48,3.28 0.552,51.36 -33.096,101.52 -78.04,125.36 -13.696,2.64 -29.112,3.44 -42.712,-0.48 -7.008,-0.48 -15.608,-3.44 -17.536,-11.04 16.584,-64.48 77.864,-112.72 143.768,-117.12 z m 57.608,77.44 c 18.064,0.08 36.072,4.08 52.376,12.16 -6.512,58.8 -48.16,111.84 -104.152,131.36 -13.816,8.32 -31.56,1.84 -42.448,-7.6 -16.432,-15.92 -12.592,-41.36 -4.728,-60.56 11.776,-27.2 29.584,-56.08 57.488,-68.56 13.336,-4.56 27.416,-6.88 41.464,-6.8 z"
     style="fill:#20a456;fill-opacity:1;stroke:#20a456;stroke-width:0.8;stroke-opacity:1" /><g
     id="g2071"
     transform="matrix(0.33150597,0.20919061,-0.25152486,0.39859338,348.50805,-156.86976)"
     style="fill:#20a456;fill-opacity:1;stroke:#b3a456;stroke-opacity:1">
	<path
   fill="#ffffff"
   d="m 1286.627,77.012 c 68.688,-19.097 -52.043,-56.678 1288.012,510.226 6.163,2.61 13.356,4.869 16.865,11.141 3.794,12.325 0.833,30.835 -14.211,33.84 -149.57,35.726 -299.228,71.079 -448.819,106.673 106.678,85.972 189.634,83.005 201.613,153.737 13.552,75.21 -59.531,148.303 -125.643,187.73 2.352,174.628 -177.719,267.948 -70.07,490.664 19.325,32.691 -22.154,51.882 -35.77,31.339 -38.609,-63.423 -47.352,-121.757 -50.683,-129.328 -6.842,59.28 -9.411,78.33 -3.728,146.105 -0.57,21.69 -36.121,27.633 -44.498,8.049 -3.948,-19.409 -5.132,-39.279 -6.93,-58.973 -6.507,74.514 7.368,71.024 -35.835,86.189 -52.091,18.367 -139.125,-14.302 -130.972,-48.27 92.809,-309.39 209.363,-372.844 272.669,-504.787 52.932,-106.376 69.759,-67.837 126.915,-127.683 34.336,-35.824 33.524,-69.891 22.852,-84.654 -4.879,-4.034 -130.299,-53.292 -198.696,-131.148 -4.606,0.855 -9.145,1.864 -13.663,2.873 30.046,74.281 51.999,151.873 64.784,231 3.974,19.153 -13.708,35.093 -34.19,26.076 -451.43,-196.691 -582.3,17.681 -927.794,-64.872 C 1021.577,925.074 835.448,822.683 502.22,932.631 480.681,938.54 470.327,917.763 473.666,902.52 488.491,809.181 521.87,718.825 571.259,638.229 395.502,562.544 219.724,486.86 44.057,410.978 25.613,402.995 31.863,371.546 50.878,368.498 462.786,271.321 874.74,174.276 1286.627,77.012 M 963.539,176.864 C 660.999,248.425 358.307,319.328 55.834,391.197 231.677,467.1 407.586,542.85 583.473,618.643 652.555,512.894 787.569,391.452 855.681,384.902 c 18.883,-2.588 38.007,-2.04 56.999,-3.619 429.513,-30.555 930.563,72.37 971.305,117.638 10.472,11.562 91.32,120.189 143.034,240.299 181.217,-42.744 362.302,-86.079 543.496,-128.889 -410.879,-173.804 -821.582,-348.002 -1232.57,-521.477 -124.897,28.818 -249.575,58.82 -374.406,88.01 M 839.913,410.737 c -24.918,8.559 -292.484,161.259 -344.537,499.831 347.159,-116.392 558.477,2.438 673.832,26.032 323.537,68 466.655,-136.461 909.547,61.758 C 2040.694,754.179 1908.975,558.581 1858.019,507.738 1529.163,409.794 1181.248,376.59 839.913,410.737 m 1235.092,340.831 c 132.395,129.636 253.734,97.59 196.832,198.016 -28.954,48.52 -54.721,67.35 -81.562,84.851 5.241,5.79 8.333,13.115 10.527,20.549 42.305,-25.396 80.772,-61.21 99.414,-107.769 33.101,-87.193 -40.115,-101.032 -95.905,-130.051 -37.261,-19.036 -72.043,-43.073 -102.528,-71.737 -8.948,1.952 -17.786,4.386 -26.778,6.141 m 23.62,404.54 c -6.533,14.143 -165.078,168.587 -250.343,455.136 31.348,27.778 76.143,35.965 119.305,14.781 -2.368,-113.011 31.076,-226 92.22,-320.852 -41.625,98.032 -56.209,207.797 -38.555,312.957 -10.988,-95.861 4.386,-194.901 45.836,-282.165 -14.183,92.457 5.816,175.681 49.696,253.172 -22.22,-70.368 -100.929,-135.933 52.985,-416.34 3.185,-16.983 15.813,-100.078 1.821,-126.148 -23.149,-6.654 -61.942,84.422 -72.965,109.459 z"
   id="path2061"
   style="fill:#20a456;fill-opacity:1;stroke:#b3a456;stroke-opacity:1" />
	<path
   d="m 1337.946,88.855 c 410.988,173.475 821.691,347.673 1232.57,521.477 -181.194,42.81 -362.279,86.145 -543.496,128.889 -27.808,-64.587 -62.416,-126.213 -102.9,-183.673 -29.55,-42.061 -35.809,-62.34 -67.921,-74.653 -12.371,-4.84 -440.569,-135.39 -943.518,-99.611 -69.92,5.813 -70.51,-4.978 -143.429,44.323 C 697.121,478.899 632.643,543.377 583.474,618.644 407.586,542.85 231.677,467.1 55.834,391.197 246.421,345.913 1257.172,107.492 1337.946,88.855 Z"
   id="path2063"
   style="fill:#20a456;fill-opacity:1;stroke:#b3a456;stroke-opacity:1" />
	<path
   d="m 1858.019,507.738 c 11.512,11.487 175.395,199.731 220.736,490.62 -441.976,-197.809 -586.793,6.077 -909.547,-61.758 -115.254,-23.574 -326.816,-142.376 -673.832,-26.032 31.843,-207.121 151.825,-385.43 330.523,-492.155 34.569,-19.332 513.633,-65.097 1032.12,89.325 z"
   id="path2065"
   style="fill:#20a456;fill-opacity:1;stroke:#b3a456;stroke-opacity:1" />
	<path
   d="m 2075.005,751.568 c 8.992,-1.755 17.83,-4.189 26.778,-6.141 120.564,113.365 241.693,87.834 198.433,201.788 -18.641,46.56 -57.109,82.373 -99.414,107.769 -2.193,-7.435 -5.285,-14.76 -10.527,-20.549 26.621,-17.358 52.475,-36.108 81.562,-84.851 48.147,-84.974 -32.167,-76.59 -135.644,-147.311 -22.151,-14.651 -42.24,-32.152 -61.188,-50.705 z"
   id="path2067"
   style="fill:#20a456;fill-opacity:1;stroke:#b3a456;stroke-opacity:1" />
	<path
   d="m 2171.59,1046.65 c 13.861,25.826 1.466,108.621 -1.821,126.148 -150.813,274.757 -78.427,335.77 -52.985,416.34 -43.791,-77.334 -63.904,-160.555 -49.696,-253.172 -41.45,87.264 -56.823,186.304 -45.836,282.165 -17.654,-105.16 -3.07,-214.924 38.555,-312.957 -61.144,94.852 -94.589,207.841 -92.22,320.852 -43.078,21.142 -87.887,13.059 -119.305,-14.781 85.759,-288.206 242.896,-439.014 250.343,-455.136 12.402,-28.171 50.385,-115.95 72.965,-109.459 z"
   id="path2069"
   style="fill:#20a456;fill-opacity:1;stroke:#b3a456;stroke-opacity:1" />
</g></svg>
