<?xml version="1.0" encoding="UTF-8" standalone="no"?>
<svg
   id="svg2"
   height="209.46001pt"
   width="2337.6506pt"
   version="1.1"
   viewBox="0 0 2337.6506 209.46"
   sodipodi:docname="text_and_logo.svg"
   xml:space="preserve"
   inkscape:version="1.2.2 (b0a8486541, 2022-12-01)"
   inkscape:export-filename="text_and_logo.png"
   inkscape:export-xdpi="200"
   inkscape:export-ydpi="200"
   xmlns:inkscape="http://www.inkscape.org/namespaces/inkscape"
   xmlns:sodipodi="http://sodipodi.sourceforge.net/DTD/sodipodi-0.dtd"
   xmlns="http://www.w3.org/2000/svg"
   xmlns:svg="http://www.w3.org/2000/svg"><defs
     id="defs44" /><sodipodi:namedview
     id="namedview42"
     pagecolor="#ffffff"
     bordercolor="#666666"
     borderopacity="1.0"
     inkscape:showpageshadow="2"
     inkscape:pageopacity="0.0"
     inkscape:pagecheckerboard="0"
     inkscape:deskcolor="#d1d1d1"
     inkscape:document-units="pt"
     showgrid="false"
     inkscape:zoom="0.15785256"
     inkscape:cx="367.43148"
     inkscape:cy="1045.2792"
     inkscape:window-width="1854"
     inkscape:window-height="1011"
     inkscape:window-x="0"
     inkscape:window-y="0"
     inkscape:window-maximized="1"
     inkscape:current-layer="svg2" /><g
     id="g5499"
     transform="matrix(0.31645703,0,0,0.27095056,-1.6642488e-4,10.212662)"
     inkscape:export-filename="../static/workload_app/text_app_name.png"
     inkscape:export-xdpi="200"
     inkscape:export-ydpi="200"><path
       id="path4"
       d="m 8.9400203,44.137161 c -0.091571,0.01803 -0.2352482,0.148319 -0.4492223,0.44641 -7.95064847,22.204133 -11.1072289,46.583603 -5.5112204,69.628209 10.9956174,35.80289 41.3025504,66.59786 79.6976434,76.86091 1.436771,15.91369 4.612467,31.72559 5.062615,47.69454 -4.156154,24.07701 -13.701742,47.11871 -17.808565,71.19282 -15.742821,6.89826 -22.396367,26.08949 -15.129264,40.74684 3.792336,7.99756 10.766535,14.2211 18.332709,19.10688 1.856086,-0.55255 -1.335026,-1.48318 -1.615597,-2.15207 -13.710992,-9.65522 -20.63586,-28.99477 -10.748036,-43.2537 4.408976,-7.17744 12.012148,-14.54974 21.644066,-13.1189 2.395646,0.51475 4.686464,1.40466 7.066695,1.98339 -1.131535,-1.65477 -4.285649,-2.28003 -5.047199,-3.74286 17.333755,-21.22988 47.114385,-33.91546 75.495245,-30.70772 22.52278,2.77152 44.50599,13.58713 58.15224,30.92293 2.59914,1.99503 -1.02054,3.4753 -2.08425,5.01084 6.22807,-3.50148 14.45096,-3.72832 20.16722,0.83174 8.75012,7.53807 14.51571,19.32792 11.636,30.58267 -2.20141,9.80065 -9.78608,17.44921 -17.83632,23.52736 8.9382,-4.15874 16.2238,-11.57464 20.19805,-20.18293 6.88787,-14.89 -1.00821,-35.14854 -18.06447,-39.94708 -2.48506,-20.08114 -7.78817,-39.75514 -13.46126,-59.2372 -2.28465,-7.40428 -2.72246,-15.21281 -1.41827,-22.82649 1.63102,2.2684 2.94138,4.74619 4.69263,6.93607 2.99071,-2.54759 5.34319,-5.6361 7.78817,-8.6141 -2.25999,16.73671 9.76449,32.93541 26.76526,37.5071 -4.47064,-5.42671 -5.95058,-12.59252 -5.51893,-19.33664 4.68338,16.41099 18.49612,31.82156 37.22964,33.7148 -3.94033,-6.48239 -5.56209,-13.78779 -6.90328,-21.07284 6.29589,8.64609 19.27617,13.32539 29.67272,10.38519 -7.51376,-2.9082 -10.51988,-10.62948 -12.48696,-17.46667 5.50043,3.70796 12.14781,6.03743 18.90001,4.23144 1.91159,-0.51766 3.73068,-1.2738 5.73476,-1.36686 32.21944,15.97186 69.98864,21.41892 105.93875,16.44589 21.18159,-2.68718 41.49988,-9.536 62.68146,-12.17664 12.54863,-1.47446 26.82385,-0.2821 36.19678,8.67226 15.94014,12.92115 27.99545,29.51245 38.75582,46.38584 12.76445,21.27642 22.19905,44.83287 24.04897,69.3781 1.38744,12.53435 -4.31648,24.48707 -11.96282,34.40404 -9.89707,12.85426 -19.73248,26.31924 -24.26479,41.81997 -3.11403,11.13842 -3.854,24.2835 2.95987,34.3168 9.68125,7.56133 21.70573,18.75791 17.08093,31.84483 -14.02856,35.10202 -23.8948,72.64692 -19.51665,110.3954 -9.61959,-4.71129 -20.16413,-7.99756 -31.04783,-8.20113 -4.37815,0.26174 -8.75629,0.55256 -13.07277,1.36686 -7.58467,1.68675 -14.67603,4.97302 -21.08909,9.18992 4.84062,-10.93485 15.07685,-18.32168 22.29154,-27.6861 19.67082,-24.69065 21.52074,-59.53092 8.07798,-87.21702 -10.14373,-17.74004 -24.51144,-33.24077 -40.82157,-46.18227 -23.27816,-16.69309 -41.16072,-39.75514 -51.76693,-65.4055 -0.52415,-0.93062 -0.55498,-2.2684 -1.47994,-2.87912 2.74405,12.09813 8.72546,23.29471 15.16935,33.96782 5.91974,8.78277 12.36363,17.24564 19.88664,24.83605 6.28973,6.4853 13.75107,11.83639 20.62661,17.74004 1.88075,1.45411 -1.66493,2.06483 -2.52823,2.90821 -40.66741,24.05084 -89.78279,33.09535 -137.2949,30.97237 -0.40081,-1.91942 1.14079,-3.7225 1.69576,-5.55467 2.43573,-8.98635 2.43573,-18.96149 -1.63409,-27.56977 -3.11404,-6.22356 -7.98549,-11.83639 -14.21356,-15.47164 9.55792,8.25929 16.86511,20.09568 14.92269,32.74637 -0.12332,11.92363 -9.40376,20.8809 -13.65857,31.52492 -9.58876,22.04419 -14.42938,45.94962 -14.33689,69.7678 -0.27748,14.97725 5.24144,29.3147 6.50556,44.11745 0.95579,14.97725 -1.69576,31.03053 -11.43868,43.24499 4.56314,-15.35532 -7.78199,-30.68155 -23.58648,-33.82241 -5.27535,-1.30869 -10.79428,-0.90154 -16.1313,-0.17449 -4.44598,1.27961 -8.81487,2.70463 -13.06969,4.44955 3.1202,-16.66401 22.64919,-25.27229 24.41278,-42.34344 2.36482,-12.33079 3.19728,-24.86514 4.002,-37.34134 0.7338,-25.03963 -0.0832,-52.4349 -15.44375,-73.98469 -8.2969,-13.90122 -16.03573,-28.06417 -24.32646,-41.9363 -0.6968,-1.1342 -1.24869,-2.35564 -1.8345,-3.54801 -0.73072,-0.90154 -1.49843,-1.774 -2.21374,-2.70462 4.11608,11.02209 10.24239,21.25896 15.00286,32.01932 -7.30411,-4.91487 -13.41809,-11.19659 -19.57524,-17.30382 -11.91657,-11.72006 -21.81365,-25.03963 -33.34173,-37.07959 -2.48814,-3.46076 -7.01736,-6.97969 -8.38939,-10.26596 6.27431,-4.44955 11.82716,-9.82973 16.21763,-15.99512 6.21574,-9.39349 11.54659,-19.63037 13.711,-30.56522 1.42443,-5.23476 1.91158,-10.61494 2.80263,-15.90787 6.39764,-2.82095 14.06864,-9.13175 11.31534,-16.37317 -2.62689,-4.01333 -7.91457,-0.90155 -8.97211,2.55921 -5.25378,11.28383 -4.38431,24.07992 -8.82412,35.62549 -4.2949,11.19658 -10.33489,22.0151 -19.0326,30.76879 -7.88066,7.79399 -18.58245,12.06904 -28.80325,16.43135 -9.83541,4.30414 -21.18159,6.01998 -31.76313,3.28627 -9.08928,-2.03574 -17.37692,-6.42713 -25.5844,-10.49861 -4.11299,-1.97758 -7.92382,-4.50772 -11.2321,-7.53225 -10.461297,-9.50983 -17.620488,-21.86969 -22.313119,-34.75303 -4.223985,-11.42924 -3.514848,-24.28349 -9.779911,-35.07293 -1.40594,-3.08269 -7.630921,-4.18781 -8.003988,0.17449 -1.091453,6.33989 4.988618,10.46954 9.86624,13.43591 0.813965,3.3735 1.199365,6.83426 1.732759,10.26594 2.713216,21.6952 13.606163,43.7103 33.508219,55.92476 2.76872,0.84338 1.93009,3.89699 2.60222,5.93273 2.71322,14.59918 16.52596,26.40649 32.24103,27.42436 12.11389,0.66889 25.5104,-1.01787 34.94499,-8.8991 6.36064,-5.671 10.49213,-13.55223 11.08411,-21.84061 -0.81089,-1.80309 2.63613,-4.74037 3.56109,-2.23932 12.30197,21.40438 29.68814,39.72606 49.72277,54.93597 2.15208,14.68642 6.03383,29.22744 11.67608,43.09957 5.83033,12.3017 7.00195,26.11567 7.54768,39.43524 0.28057,19.19415 -2.0935,39.46432 -12.91245,56.15741 -3.94649,2.12299 -6.74295,5.72916 -10.51988,7.9394 -23.28741,3.57709 -41.95927,22.335 -46.31583,43.91387 -0.22507,5.35109 6.40689,7.1251 10.91145,7.47408 11.91348,0.52348 23.64198,-2.03574 35.22248,-4.3623 -5.57751,8.75369 -12.04915,19.54313 -7.58468,29.89633 5.47577,8.92818 18.05831,9.21901 27.73647,10.23688 34.62743,1.54134 65.17886,-27.83151 65.48718,-60.05441 1.66493,-21.02631 -8.04716,-41.18016 -5.4881,-62.23555 1.88075,-26.0575 6.13557,-53.19104 20.74994,-75.87503 42.60983,7.47408 86.88458,-2.38473 123.88298,-22.8294 10.57538,13.02875 13.84357,30.50706 13.1036,46.73483 1.20245,16.31502 -0.12333,35.50917 -14.15189,47.08382 -9.58875,7.79398 -18.25254,16.57676 -27.16299,24.95238 -16.09431,5.61284 -30.2462,18.96149 -31.47948,35.71274 0.43165,3.48985 -0.43165,8.28838 2.83655,10.76036 19.82497,5.4965 41.34571,-0.14541 58.24165,-10.61495 10.54454,-5.9909 21.95239,-14.5701 23.49399,-26.92996 2.49739,-26.95905 16.71094,-51.03897 29.47539,-74.68267 1.47994,-1.86125 2.09658,-5.03119 4.19315,-6.10723 4.8098,20.90999 1.84992,43.97204 -10.76037,62.09015 -7.02969,10.78943 -18.71502,18.6125 -23.83313,30.5943 -1.23328,3.48984 -5.08728,5.1766 -7.09137,8.20113 -6.38222,8.63737 -11.71616,19.1069 -10.29788,29.89634 0.49331,9.48074 8.81795,18.05994 19.05417,18.40892 16.00181,0.61073 30.83201,-6.28172 44.92223,-12.59252 10.0204,-4.24597 19.30084,-12.27262 21.18159,-22.88756 3.36069,-12.24354 -0.98663,-24.71973 -0.40082,-37.07959 -0.86329,-17.85637 3.20653,-35.39284 6.41306,-52.87114 2.77488,-15.35532 9.09544,-29.83817 14.5527,-44.46643 3.32986,-13.75581 -8.72545,-24.69065 -18.4992,-32.94995 -9.89707,-22.10235 3.20653,-45.89145 17.0501,-63.63149 6.87554,-8.55012 13.90523,-17.42014 17.23509,-27.80243 -0.0925,13.46498 -4.56314,27.59885 -6.0739,41.35466 -0.67831,12.15629 -2.74405,25.30137 -1.38745,36.70152 -0.21582,-22.07326 3.2682,-44.00112 7.893,-65.57999 6.9372,-37.57398 -5.88891,-75.7296 -26.3922,-107.73438 10.60621,11.86547 18.74586,25.60964 25.12809,39.88601 11.68532,25.12687 10.39038,53.65634 4.93312,80.06283 -4.31648,17.4783 -9.92791,35.451 -7.21469,53.56911 0.61664,-14.97725 2.18907,-30.36165 7.36885,-44.72817 7.30718,-23.78911 10.39038,-49.17772 5.3031,-73.6357 -5.91974,-26.46466 -23.30899,-49.0643 -42.91815,-68.18865 -9.68125,-8.45997 -16.83427,-19.20578 -27.19382,-27.06374 -8.23215,-7.27633 -19.51666,-11.24603 -30.80118,-10.73127 -26.45385,1.15455 -51.15029,11.49322 -77.23416,14.7504 -33.85354,3.98424 -69.64949,0.0436 -100.204,-14.87255 0.98662,-0.86373 2.55905,-1.2069 3.23736,-2.37018 -14.02857,0.98588 -17.85173,-19.19124 -32.9255,-15.50073 -3.72759,-7.27923 -11.62983,-11.18495 -19.64615,-12.9386 -4.47989,-9.91988 -13.83741,-17.26309 -24.0428,-21.68065 -2.35248,-5.57212 -6.62271,-10.71964 -11.2136,-14.27637 33.55755,-15.90788 59.33927,-47.30193 64.5098,-82.70059 1.36586,-19.464604 -2.11199,-39.330542 -9.96798,-57.384669 -0.37924,0.518242 -0.65981,1.118204 -0.70297,1.754228 8.13348,23.683828 9.49317,50.396259 0.66905,74.185361 -11.37701,31.77213 -38.11452,59.33026 -72.42746,69.47408 0.36382,-3.76613 0.90646,-7.5148 1.05754,-11.29837 0.20349,-3.48112 0.55498,-6.95061 0.73997,-10.43464 -0.22508,-4.67057 -0.68139,-9.36151 -2.06575,-13.86922 -0.72763,-1.98049 -2.59605,-4.50772 -0.22199,-6.15085 10.30098,-12.03415 19.14668,-25.55439 24.00888,-40.40658 6.49939,-24.120641 20.56187,-48.369242 45.12572,-59.708328 0.185,-0.09684 0.5519,-0.293146 0.73689,-0.391153 l -0.0493,-0.268718 c -24.6841,8.942726 -41.00657,31.074155 -49.01055,54.092589 -5.21986,15.83516 -12.00907,31.33007 -21.96781,45.07133 -1.75125,3.09724 -3.01228,-1.64604 -4.07599,-2.75988 3.37919,-2.75407 4.93312,-7.70092 1.84376,-11.21694 -4.89921,-4.4292 -11.90732,-5.74952 -18.42213,-6.44167 11.24752,-7.15709 25.1805,-10.25142 35.37664,-18.81026 2.85813,-2.04156 2.30315,-6.51147 -1.10378,-7.54679 -13.48592,-5.403443 -28.81251,-0.433323 -40.00761,7.35194 3.4501,-4.47864 7.85908,-9.050332 7.93616,-14.907454 -0.29907,-3.353158 -4.31031,-4.978844 -7.50143,-4.455367 -9.08002,-0.145411 -15.36975,7.404286 -18.94626,14.122231 -3.42544,-9.570893 -9.02145,-18.912043 -17.79624,-24.966922 -4.46447,-3.326985 -11.95973,-3.181575 -15.30808,1.486092 -4.25174,5.447065 -2.0935,12.589613 -0.0678,18.449643 -9.10777,-6.223556 -19.2515,-12.572164 -30.80117,-13.29049 -6.73679,-0.351893 -16.612279,4.842159 -12.924772,12.313333 6.724462,8.916554 18.554702,12.208634 28.892672,16.093994 -14.81478,-1.26216 -38.327265,-3.52474 -47.38879,12.03124 -3.499433,8.20986 6.092404,14.19494 13.59383,15.04996 -2.185989,2.71044 -3.820085,6.12176 -6.434639,8.39889 C 76.455323,134.84345 68.204679,120.43912 63.761787,104.87441 55.350817,81.070764 39.783738,56.886144 13.826276,47.652598 c 16.128221,7.850986 28.698427,21.232212 36.19677,36.724794 5.713171,10.280499 8.179731,21.721368 12.588707,32.478818 5.287689,12.32206 14.154973,22.89338 23.555651,32.6504 -0.443981,0.97716 -0.958876,1.92814 -1.464521,2.87912 -2.787213,4.62986 -2.022579,12.31624 -3.795419,15.4222 1.066787,2.63193 0.875629,6.88954 1.060621,10.22234 0.04008,0.90445 0.06783,1.8089 0.08325,2.72208 l 0.01542,0.32572 c -0.191158,2.8006 1.251779,7.03203 0.292904,9.09977 C 49.095003,180.15617 23.424279,153.44141 11.396714,122.99833 1.9467055,99.668726 3.0720736,73.919492 8.128522,49.795944 8.305806,48.669306 8.506214,47.545576 8.706622,46.422137 8.7491702,46.200532 8.8302584,45.757322 8.8687984,45.535426 9.0248083,45.042194 9.2150418,44.082487 8.939712,44.13658 Z M 291.21626,51.701399 c -2.05033,1.304911 -3.79542,2.966658 -5.46035,4.675228 -9.38218,12.00361 -16.05731,25.700957 -20.84244,39.862745 -7.87449,25.249018 -15.95247,52.708278 -38.65716,69.997548 13.63391,-8.8264 23.26583,-22.1576 29.56172,-36.4078 11.27835,-23.17547 14.69454,-49.523795 30.02421,-70.919448 1.76667,-2.414681 3.43468,-4.908466 5.37402,-7.209437 z M 13.533989,53.300911 c -0.213666,-0.0044 -0.407291,0.119818 -0.549427,0.458332 13.396506,13.555719 19.522825,31.766307 25.121916,49.134097 8.266059,23.56808 17.638988,49.79426 40.84007,63.78272 C 57.302482,151.28003 48.962426,125.93504 41.578161,102.52109 36.481632,84.941001 28.400564,67.567394 14.896147,54.259454 14.570252,53.937226 14.003868,53.308763 13.533989,53.299747 Z M 145.90811,79.838268 c 14.33996,-0.119237 22.38095,14.939441 28.21437,25.217032 5.01328,-5.729161 10.76961,-12.580888 19.07267,-14.32581 2.17366,-0.593274 4.76355,1.201088 4.04208,3.518926 -0.67522,5.825134 -2.76563,12.112664 -7.28869,16.352824 10.81587,-4.72292 22.93593,-8.49777 34.95116,-7.27923 4.10682,0.97425 0.25899,5.1388 -1.84992,6.1683 -10.47055,6.02871 -24.44361,9.16666 -30.83817,19.90084 7.35343,1.65767 16.93602,0.0523 23.10859,5.59247 2.62072,2.28294 0.0185,5.94146 -2.68855,6.83428 -7.4706,2.96346 -16.38721,2.22187 -23.43233,-1.45701 -1.14695,-0.43914 -1.23019,-1.66931 -1.60943,-2.62029 -2.20448,12.0545 -7.14377,31.62671 -23.57415,34.27027 1.47069,1.77691 3.53335,2.84713 5.78409,3.46658 -6.39764,1.33196 -10.62779,-4.59787 -12.39138,-9.52437 -1.36586,-4.58624 -4.21782,-9.70467 -1.59094,-14.38106 -0.0185,-0.48277 0.0247,-0.95971 0.0463,-1.43666 -6.68746,10.68765 -15.26492,20.42722 -25.73547,28.00019 -4.32881,2.82677 -9.02453,6.10432 -14.57429,5.86293 0.30524,1.58788 0.76772,3.15541 1.11304,4.74038 -7.85908,-2.88494 -5.60834,-12.4762 -3.78617,-18.51944 3.46243,-7.94812 7.88066,-15.69558 14.31838,-21.87842 -7.18077,3.28627 -9.66583,11.89165 -16.52595,15.80318 -6.17565,4.13256 -14.056314,8.92818 -21.841395,6.40386 -0.172659,1.89034 0.295987,3.73123 0.900295,5.50814 -5.056449,-2.48361 -3.927997,-9.43421 -2.460394,-13.62202 4.41206,-10.06821 13.362594,-19.40063 23.953384,-23.57972 4.43981,-0.98879 9.38526,-1.489 13.15601,-4.12092 -12.2033,0.4624 -26.404523,3.10596 -37.726034,-3.43459 -3.625844,-1.72166 -6.10782,-6.76739 -1.862253,-9.40513 14.598953,-10.78071 35.074487,-7.89868 51.970427,-7.55842 -12.59796,-4.78981 -26.19487,-10.19035 -34.01387,-21.261878 -2.05033,-2.605751 0.0154,-4.929405 2.85504,-5.39181 12.05223,-2.285848 23.383,4.312866 33.8073,9.067779 5.07494,1.523899 4.6063,7.730009 8.48496,10.521879 -3.02462,-8.550117 -8.76554,-19.086538 -2.67621,-27.415633 0.23124,-0.0087 0.45939,-0.01454 0.68755,-0.01745 z m -39.62529,59.868272 c -5.73784,3.37061 -11.620583,6.83137 -15.909315,11.85966 -0.450147,0.74741 -1.717342,0.29082 -1.347358,-0.57583 1.69576,-4.05694 4.16232,-7.85796 7.014281,-11.28092 3.413102,0.19776 6.832372,0.29082 10.242392,-0.003 z m 82.01313,2.56795 c 6.96803,3.65852 15.11693,6.20029 23.10242,4.33322 8.71312,11.63572 6.78612,26.79037 5.83649,40.25245 -0.90029,17.68769 -3.76767,35.29105 -3.743,53.00201 3.70601,18.57178 10.01423,36.57356 14.16422,55.06683 -8.92895,-11.04536 -21.06442,-19.55476 -33.87512,-25.92082 -13.45509,-5.29293 -27.65322,-9.75411 -42.36009,-10.05657 -21.12609,1.14002 -42.09802,8.1168 -59.055617,19.77579 -5.497346,5.02828 -11.851822,9.83554 -17.006933,15.32623 3.761504,-16.49242 10.004985,-32.3654 14.75003,-48.61062 2.361732,-7.80562 1.205532,-15.92242 0.604307,-23.86763 -1.418272,-14.93653 -2.46656,-29.93123 -4.251733,-44.82123 2.55289,1.68676 5.682338,1.71584 8.666876,1.41048 5.28461,-1.60242 10.45822,-5.06028 15.05835,-8.34655 -2.43264,6.28172 -4.47681,15.70139 2.30007,20.3109 6.89712,4.3245 15.60099,0.0872 20.89176,-4.57461 9.18794,-7.56714 16.50746,-17.31835 20.85169,-28.08452 0.53647,8.26221 3.04928,19.98518 13.55375,21.4102 11.32459,0.50893 17.62973,-10.57714 19.50124,-19.70599 0.78621,-5.59538 1.46143,-11.23439 1.01129,-16.89957 z m 48.44632,43.42529 c 0.63206,-0.006 1.20553,0.24138 1.67418,0.91609 7.77583,5.54885 10.38114,15.31169 10.24856,24.1061 1.91467,14.79694 -4.17774,29.47464 -1.27953,44.21923 -7.13761,-10.27468 -8.8827,-22.91373 -11.00394,-34.80247 -0.83863,-4.91196 -3.91258,-11.35363 -10.1314,-11.11806 2.91363,7.68056 -0.22199,16.34992 -3.28669,23.62624 -4.67105,-13.55223 3.28361,-28.34044 0.87563,-42.37252 2.49739,-1.02951 5.10886,-1.80018 7.6895,-2.61448 1.60943,-0.30245 3.60118,-1.9514 5.21369,-1.96013 z m 14.39547,15.1023 c 3.95574,1.66059 7.29485,4.48445 10.12214,7.52062 4.15616,2.99836 7.06053,7.54388 9.29277,11.99634 1.98866,16.38772 4.16232,32.80744 8.27839,48.86945 0.60431,1.27088 -0.88179,0.8492 -1.51077,0.3199 -14.02856,-9.79774 -20.03463,-26.52281 -22.29154,-42.23293 -0.49022,-6.73249 -4.29489,-12.89207 -3.04928,-19.76997 -0.006,-2.26258 -0.45015,-4.48445 -0.84171,-6.70341 z m -76.20747,14.27928 c -8.24756,0.96844 -9.88474,12.80482 -3.07086,16.55641 3.68442,2.20732 9.00294,0.3577 10.69562,-3.33281 3.33294,-5.22895 -0.88488,-13.2963 -7.62476,-13.2236 z m -46.58407,0.0524 c -9.7275,1.38721 -11.64216,17.99015 -0.4594,18.88297 11.27835,-0.47695 9.8385,-16.70763 0.4594,-18.88297 z m -6.1664,5.96182 c 0.58272,2.80351 1.35044,6.64815 4.81596,7.39556 3.03695,0.88119 4.7173,-1.8787 6.34214,-3.69924 -0.68755,2.85586 -2.51589,6.53183 -6.1664,6.38933 -4.76971,-0.70379 -6.37914,-6.2381 -4.9917,-10.08565 z m 46.86773,0.45949 c 1.15311,2.02411 1.45835,6.28172 4.9547,6.9477 3.1387,0.87828 4.85604,-1.75655 6.35448,-3.72831 -0.57656,2.59411 -2.91054,5.43543 -6.04308,4.99338 -3.89716,-0.7794 -5.20444,-4.93813 -5.2661,-8.21277 z m 106.42282,1.0266 c 5.0102,1.76819 10.65554,4.2896 12.00907,9.71631 3.98658,11.05699 8.21673,22.14888 14.9566,32.02514 -9.84774,-2.42254 -17.35533,-10.60622 -19.88972,-19.74961 -1.72351,-5.86585 -4.35657,-11.50195 -5.75942,-17.43759 -0.56731,-1.49191 -1.06987,-2.99545 -1.31653,-4.55425 z m 19.60916,12.73502 c 11.95048,1.01787 17.90106,14.47413 30.0797,14.79403 -12.5178,3.05943 -25.47032,-3.62943 -30.0797,-14.79403 z m -143.41815,25.74924 c 7.18386,0.0523 14.33997,1.08476 21.27717,3.29499 7.66792,1.84962 15.23101,4.50772 22.0233,8.33491 13.31017,6.6627 26.71284,15.53272 33.93678,28.29973 0.32682,2.78606 0.96813,5.55176 0.94038,8.36981 -2.93829,-0.1774 -5.72242,0.80848 -8.5898,1.03823 -15.44067,-20.81983 -41.91919,-32.85107 -68.49638,-34.22665 -21.99863,0.39261 -43.48237,8.77696 -60.036072,22.2972 -3.268193,3.60908 -7.248604,7.02331 -10.424301,10.89122 -3.311357,-0.64853 -6.764541,-1.06731 -10.051233,-0.0407 -0.277488,-12.1592 10.566128,-20.50284 19.532074,-27.58431 16.584532,-12.17665 38.342682,-20.83437 59.888082,-20.67442 z m -1.25794,43.16646 c -0.39774,-0.003 -0.79547,-0.003 -1.1932,0.003 -9.27427,0.11924 -18.36971,2.64356 -25.199,8.82931 14.32455,-5.80478 31.01391,-7.95103 46.18326,-3.97552 2.65155,0.5322 5.16436,1.52972 7.782,2.18697 -3.04929,-2.0212 -6.76455,-2.86749 -10.12832,-4.31577 -5.48809,-1.65477 -11.488,-2.67555 -17.44474,-2.7279 z m -2.70089,6.61616 c -0.0802,0.0116 -0.15724,0.11924 -0.21582,0.38098 -1.82526,26.33378 1.35044,52.56577 3.0832,78.79776 0.41931,1.65768 -0.13875,4.10057 0.80163,5.11844 0.3669,-8.60828 0.44706,-17.24565 0.91571,-25.88301 0.0216,-19.16505 0.33915,-38.44935 -3.99583,-57.28869 -0.0462,-0.31118 -0.34223,-1.16037 -0.58889,-1.12548 z m 28.78476,100.75761 c -12.24031,10.61495 -31.52572,11.05118 -45.32304,2.99545 -1.43369,-0.78521 -6.15407,-4.76945 -4.05441,-1.59951 11.77782,13.98846 35.5123,12.67977 48.18733,0.40715 0.39774,-0.61072 0.79547,-1.19236 1.19012,-1.80309 z m 13.92065,17.53647 c -1.2302,11.6619 -9.783,22.94573 -22.07572,26.0575 -8.24139,2.03575 -17.29983,2.87912 -25.57514,0.72705 -13.30401,-1.86125 -24.67485,-11.45832 -28.62752,-23.58553 -0.24049,-0.69797 -0.42856,-1.42502 -0.57347,-2.15207 12.61337,5.58375 25.76322,11.95272 40.12168,11.22567 13.36568,-0.0582 25.05101,-7.1251 36.73017,-12.27262 z m 399.95273,48.50883 c -0.27748,0 -0.55497,0 -0.83246,0.0291 -0.64747,0.61072 -4.50147,0.46531 -2.74405,1.89033 -1.66493,-1.07604 -4.06982,2.38473 -3.26819,-1.16328 -11.46951,26.72639 1.10995,59.56 26.88551,74.56633 1.57243,0.66889 1.04828,-0.75613 0.86329,-1.80308 5.27227,3.78066 11.62367,5.4965 18.06756,6.36896 0.55497,-0.29082 -0.49332,-0.6398 -0.12333,-1.13419 -4.74813,-1.10512 -9.74292,-3.37352 -11.96282,-7.73583 -6.2589,-10.99301 -10.0204,-23.64369 -19.82498,-32.54279 -7.52301,-9.91698 -15.75515,-23.90544 -9.71208,-35.85815 -0.0925,-0.20358 -0.21582,-0.61073 -0.27749,-0.8143 9.09544,-1.54135 16.92677,4.65313 22.63069,10.58586 7.64634,7.50317 12.54863,16.92575 16.61845,26.46465 0.24666,0.26174 0.49332,0.52348 0.7708,0.78522 -2.80571,-10.61494 -7.46134,-21.0554 -15.01518,-29.48919 -5.21061,-6.3108 -13.59692,-10.23687 -22.07572,-10.14963 z m -107.48036,7.06694 c 16.9576,15.64613 35.17932,33.06627 39.89661,55.86659 -8.57129,10.20779 -16.03264,21.54979 -22.56902,33.12444 -7.43052,14.94816 -11.13036,31.32135 -12.54863,47.69453 -8.4788,-7.96847 -20.84243,-11.40015 -32.62026,-10.73127 -1.57243,0.0873 -3.05237,0.3199 -4.59397,0.46531 -4.03899,0.75614 -8.07798,1.54135 -11.93198,2.93729 9.49626,-9.27717 20.31829,-17.27473 30.73951,-25.56311 9.52709,-9.10268 13.13443,-22.18959 13.75107,-34.66578 0.55498,-14.77368 0.30832,-30.47798 -7.21469,-43.88479 -2.46656,-5.20569 -6.28973,-10.06239 -9.86624,-14.77368 5.82725,-3.2281 11.53117,-6.65978 16.9576,-10.46953 z m -236.36121,0 c 4.5693,3.66434 11.31535,5.64191 13.14985,11.57465 5.21678,11.8073 13.61541,22.39317 16.33171,35.10201 7.4891,27.27895 6.42848,55.83751 3.65051,83.66902 -0.39773,6.3108 -2.18907,12.91242 -6.48397,17.82729 -5.3031,-2.44289 -11.34926,-3.22811 -17.00693,-3.83883 -2.47889,-0.0291 -4.95162,0 -7.41818,-0.14541 -1.55702,-0.17449 -8.96595,1.65767 -4.85296,-1.10512 10.63704,-5.87457 15.18476,-17.50738 18.73044,-28.06416 5.91975,-21.78245 7.0852,-45.01899 1.54777,-66.97593 -4.21782,-10.3532 -9.33285,-20.38651 -12.76137,-31.00145 -1.86533,-5.61283 -3.54568,-11.28383 -4.88687,-17.04207 z m 364.65009,26.49373 c 1.66493,3.51893 4.96396,6.36897 8.44797,8.34655 1.69576,0.84338 3.97733,1.48318 3.73067,3.80974 1.84992,10.58586 0.83247,21.84061 5.42644,31.87391 -2.43573,-11.10933 1.69576,-23.35287 -4.84063,-33.58975 0.70914,-0.43623 7.21469,3.11178 5.4881,0.46532 -6.87554,-1.9485 -11.00703,-9.16085 -18.25255,-10.90577 z M 456.97835,614.19157 c 1.60326,12.44711 -3.2682,25.50494 -13.16527,33.93873 -7.98549,7.15418 -19.97914,11.16751 -30.30786,11.13842 -1.57243,-0.61072 -4.43981,-0.29082 -4.13149,-2.5883 -2.40489,-16.48951 11.747,-30.21623 26.57719,-36.55612 6.28973,-2.9082 13.72024,-5.64191 21.02743,-5.93273 z m 69.49533,14.36652 c 4.77896,0 9.55792,0.61073 14.12106,1.89034 7.58467,12.38894 2.52822,28.23865 -7.0297,38.3592 -11.87032,11.60373 -28.85875,23.32379 -46.92631,18.72883 -7.95465,-2.44289 -11.68533,-11.1675 -10.76037,-18.52526 2.28157,-15.15174 12.4253,-29.19836 27.47132,-35.451 7.15302,-3.2281 15.16934,-4.97302 23.124,-5.00211 z m -274.15508,3.19903 c -0.23432,0.75613 -1.43369,0.81429 -2.11199,1.19236 0.21274,18.67067 -12.7552,36.9051 -30.07662,45.57155 -5.27844,0.95971 -11.21977,1.25053 -16.46121,-0.17449 -2.70088,-0.17449 -6.01532,-1.25053 -6.75837,-4.01332 6.39147,-23.44012 30.00879,-40.97659 55.40819,-42.5761 z m 22.20213,28.15141 c 6.96186,0.0291 13.90215,1.48318 20.18571,4.42047 -2.50973,21.37529 -18.56087,40.65668 -40.14019,47.7527 -5.32468,3.02453 -12.16322,0.66889 -16.35946,-2.76279 -6.33289,-5.78733 -4.85295,-15.03542 -1.82217,-22.01511 4.53847,-9.88789 11.40168,-20.3865 22.15588,-24.9233 5.13969,-1.65768 10.56613,-2.50105 15.98023,-2.47197 z"
       style="fill:#20a456;fill-opacity:1;stroke:#20a456;stroke-width:0.299442;stroke-opacity:1" /><g
       id="g2071"
       transform="matrix(0.12776241,0.07604611,-0.09693769,0.14489883,134.31109,-57.022331)"
       style="fill:#20a456;fill-opacity:1;stroke:#b3a456;stroke-opacity:1">
	<path
   fill="#ffffff"
   d="m 1286.627,77.012 c 68.688,-19.097 -52.043,-56.678 1288.012,510.226 6.163,2.61 13.356,4.869 16.865,11.141 3.794,12.325 0.833,30.835 -14.211,33.84 -149.57,35.726 -299.228,71.079 -448.819,106.673 106.678,85.972 189.634,83.005 201.613,153.737 13.552,75.21 -59.531,148.303 -125.643,187.73 2.352,174.628 -177.719,267.948 -70.07,490.664 19.325,32.691 -22.154,51.882 -35.77,31.339 -38.609,-63.423 -47.352,-121.757 -50.683,-129.328 -6.842,59.28 -9.411,78.33 -3.728,146.105 -0.57,21.69 -36.121,27.633 -44.498,8.049 -3.948,-19.409 -5.132,-39.279 -6.93,-58.973 -6.507,74.514 7.368,71.024 -35.835,86.189 -52.091,18.367 -139.125,-14.302 -130.972,-48.27 92.809,-309.39 209.363,-372.844 272.669,-504.787 52.932,-106.376 69.759,-67.837 126.915,-127.683 34.336,-35.824 33.524,-69.891 22.852,-84.654 -4.879,-4.034 -130.299,-53.292 -198.696,-131.148 -4.606,0.855 -9.145,1.864 -13.663,2.873 30.046,74.281 51.999,151.873 64.784,231 3.974,19.153 -13.708,35.093 -34.19,26.076 -451.43,-196.691 -582.3,17.681 -927.794,-64.872 C 1021.577,925.074 835.448,822.683 502.22,932.631 480.681,938.54 470.327,917.763 473.666,902.52 488.491,809.181 521.87,718.825 571.259,638.229 395.502,562.544 219.724,486.86 44.057,410.978 25.613,402.995 31.863,371.546 50.878,368.498 462.786,271.321 874.74,174.276 1286.627,77.012 M 963.539,176.864 C 660.999,248.425 358.307,319.328 55.834,391.197 231.677,467.1 407.586,542.85 583.473,618.643 652.555,512.894 787.569,391.452 855.681,384.902 c 18.883,-2.588 38.007,-2.04 56.999,-3.619 429.513,-30.555 930.563,72.37 971.305,117.638 10.472,11.562 91.32,120.189 143.034,240.299 181.217,-42.744 362.302,-86.079 543.496,-128.889 -410.879,-173.804 -821.582,-348.002 -1232.57,-521.477 -124.897,28.818 -249.575,58.82 -374.406,88.01 M 839.913,410.737 c -24.918,8.559 -292.484,161.259 -344.537,499.831 347.159,-116.392 558.477,2.438 673.832,26.032 323.537,68 466.655,-136.461 909.547,61.758 C 2040.694,754.179 1908.975,558.581 1858.019,507.738 1529.163,409.794 1181.248,376.59 839.913,410.737 m 1235.092,340.831 c 132.395,129.636 253.734,97.59 196.832,198.016 -28.954,48.52 -54.721,67.35 -81.562,84.851 5.241,5.79 8.333,13.115 10.527,20.549 42.305,-25.396 80.772,-61.21 99.414,-107.769 33.101,-87.193 -40.115,-101.032 -95.905,-130.051 -37.261,-19.036 -72.043,-43.073 -102.528,-71.737 -8.948,1.952 -17.786,4.386 -26.778,6.141 m 23.62,404.54 c -6.533,14.143 -165.078,168.587 -250.343,455.136 31.348,27.778 76.143,35.965 119.305,14.781 -2.368,-113.011 31.076,-226 92.22,-320.852 -41.625,98.032 -56.209,207.797 -38.555,312.957 -10.988,-95.861 4.386,-194.901 45.836,-282.165 -14.183,92.457 5.816,175.681 49.696,253.172 -22.22,-70.368 -100.929,-135.933 52.985,-416.34 3.185,-16.983 15.813,-100.078 1.821,-126.148 -23.149,-6.654 -61.942,84.422 -72.965,109.459 z"
   id="path2061"
   style="fill:#20a456;fill-opacity:1;stroke:#b3a456;stroke-opacity:1" />
	<path
   d="m 1337.946,88.855 c 410.988,173.475 821.691,347.673 1232.57,521.477 -181.194,42.81 -362.279,86.145 -543.496,128.889 -27.808,-64.587 -62.416,-126.213 -102.9,-183.673 -29.55,-42.061 -35.809,-62.34 -67.921,-74.653 -12.371,-4.84 -440.569,-135.39 -943.518,-99.611 -69.92,5.813 -70.51,-4.978 -143.429,44.323 C 697.121,478.899 632.643,543.377 583.474,618.644 407.586,542.85 231.677,467.1 55.834,391.197 246.421,345.913 1257.172,107.492 1337.946,88.855 Z"
   id="path2063"
   style="fill:#20a456;fill-opacity:1;stroke:#b3a456;stroke-opacity:1" />
	<path
   d="m 1858.019,507.738 c 11.512,11.487 175.395,199.731 220.736,490.62 -441.976,-197.809 -586.793,6.077 -909.547,-61.758 -115.254,-23.574 -326.816,-142.376 -673.832,-26.032 31.843,-207.121 151.825,-385.43 330.523,-492.155 34.569,-19.332 513.633,-65.097 1032.12,89.325 z"
   id="path2065"
   style="fill:#20a456;fill-opacity:1;stroke:#b3a456;stroke-opacity:1" />
	<path
   d="m 2075.005,751.568 c 8.992,-1.755 17.83,-4.189 26.778,-6.141 120.564,113.365 241.693,87.834 198.433,201.788 -18.641,46.56 -57.109,82.373 -99.414,107.769 -2.193,-7.435 -5.285,-14.76 -10.527,-20.549 26.621,-17.358 52.475,-36.108 81.562,-84.851 48.147,-84.974 -32.167,-76.59 -135.644,-147.311 -22.151,-14.651 -42.24,-32.152 -61.188,-50.705 z"
   id="path2067"
   style="fill:#20a456;fill-opacity:1;stroke:#b3a456;stroke-opacity:1" />
	<path
   d="m 2171.59,1046.65 c 13.861,25.826 1.466,108.621 -1.821,126.148 -150.813,274.757 -78.427,335.77 -52.985,416.34 -43.791,-77.334 -63.904,-160.555 -49.696,-253.172 -41.45,87.264 -56.823,186.304 -45.836,282.165 -17.654,-105.16 -3.07,-214.924 38.555,-312.957 -61.144,94.852 -94.589,207.841 -92.22,320.852 -43.078,21.142 -87.887,13.059 -119.305,-14.781 85.759,-288.206 242.896,-439.014 250.343,-455.136 12.402,-28.171 50.385,-115.95 72.965,-109.459 z"
   id="path2069"
   style="fill:#20a456;fill-opacity:1;stroke:#b3a456;stroke-opacity:1" />
</g></g><text
     xml:space="preserve"
     style="font-style:normal;font-weight:normal;font-size:160px;line-height:1.25;font-family:sans-serif;fill:#000000;fill-opacity:1;stroke:none;stroke-width:0.75"
     x="211.11984"
     y="176.5"
     id="text4712"
     inkscape:export-filename="../static/workload_app/text_app_name.png"
     inkscape:export-xdpi="200"
     inkscape:export-ydpi="200"><tspan
       sodipodi:role="line"
       id="tspan4710"
       style="font-style:normal;font-variant:normal;font-weight:normal;font-stretch:normal;font-size:160px;font-family:'Latin Modern Sans';-inkscape-font-specification:'Latin Modern Sans';fill:#20a456;fill-opacity:1;stroke-width:0.75"
       x="211.11984"
       y="176.5"><tspan
   style="font-style:normal;font-variant:normal;font-weight:normal;font-stretch:normal;font-size:250px;font-family:'Latin Modern Sans';-inkscape-font-specification:'Latin Modern Sans'"
   id="tspan6229">C</tspan>ollege <tspan
   style="font-style:normal;font-variant:normal;font-weight:normal;font-stretch:normal;font-size:250px;font-family:'Latin Modern Sans';-inkscape-font-specification:'Latin Modern Sans'"
   id="tspan6241">A</tspan>dministartor's <tspan
   style="font-style:normal;font-variant:normal;font-weight:normal;font-stretch:normal;font-size:250px;font-family:'Latin Modern Sans';-inkscape-font-specification:'Latin Modern Sans'"
   id="tspan6245">M</tspan>ule</tspan></text></svg>
